<?xml version="1.0" encoding="UTF-8" standalone="no"?>
<!-- Created with Inkscape (http://www.inkscape.org/) -->

<svg
   xmlns:dc="http://purl.org/dc/elements/1.1/"
   xmlns:cc="http://creativecommons.org/ns#"
   xmlns:rdf="http://www.w3.org/1999/02/22-rdf-syntax-ns#"
   xmlns:svg="http://www.w3.org/2000/svg"
   xmlns="http://www.w3.org/2000/svg"
   xmlns:sodipodi="http://sodipodi.sourceforge.net/DTD/sodipodi-0.dtd"
   xmlns:inkscape="http://www.inkscape.org/namespaces/inkscape"
   width="800"
   height="900"
   viewBox="0 0 211.66665 238.12501"
   version="1.1"
   id="svg8"
   inkscape:version="0.92.1 r15371"
   sodipodi:docname="pullReceipt-logo.svg">
  <defs
     id="defs2" />
  <sodipodi:namedview
     id="base"
     pagecolor="#ffffff"
     bordercolor="#666666"
     borderopacity="1.0"
     inkscape:pageopacity="0.0"
     inkscape:pageshadow="2"
     inkscape:zoom="0.24748737"
     inkscape:cx="390.8836"
     inkscape:cy="718.687"
     inkscape:document-units="mm"
     inkscape:current-layer="layer1"
     showgrid="false"
     inkscape:window-width="1221"
     inkscape:window-height="1030"
     inkscape:window-x="697"
     inkscape:window-y="29"
     inkscape:window-maximized="0"
     units="px"
     fit-margin-top="0"
     fit-margin-left="0"
     fit-margin-right="0"
     fit-margin-bottom="0" />
  <metadata
     id="metadata5">
    <rdf:RDF>
      <cc:Work
         rdf:about="">
        <dc:format>image/svg+xml</dc:format>
        <dc:type
           rdf:resource="http://purl.org/dc/dcmitype/StillImage" />
        <dc:title></dc:title>
      </cc:Work>
    </rdf:RDF>
  </metadata>
  <g
     inkscape:label="Layer 1"
     inkscape:groupmode="layer"
     id="layer1"
     transform="translate(-3.0616417,19.461582)">
    <g
       id="g5550"
       transform="matrix(1.4775247,0,0,1.4775247,-41.105418,-65.203589)">
      <rect
         ry="0.76748621"
         rx="2.4080074"
         y="148.42827"
         x="133.69435"
         height="8.3159409"
         width="19.568613"
         id="rect4562"
         style="opacity:1;fill:#cccccc;fill-opacity:1;stroke:none;stroke-width:2.71890187;stroke-linecap:round;stroke-linejoin:round;stroke-miterlimit:4;stroke-dasharray:none;stroke-opacity:1" />
      <rect
         style="opacity:1;fill:#cccccc;fill-opacity:1;stroke:none;stroke-width:2.73740625;stroke-linecap:round;stroke-linejoin:round;stroke-miterlimit:4;stroke-dasharray:none;stroke-opacity:1"
         id="rect4560"
         width="19.835882"
         height="8.3159409"
         x="49.508514"
         y="148.42827"
         rx="2.440896"
         ry="0.76748621" />
      <path
         inkscape:connector-curvature="0"
         id="path4554"
         d="m 120.1197,71.998656 14.24659,-29.223775 1.82649,30.319665 z"
         style="fill:#cccccc;fill-opacity:1;fill-rule:evenodd;stroke:#cccccc;stroke-width:0.36162573px;stroke-linecap:butt;stroke-linejoin:miter;stroke-opacity:1" />
      <rect
         ry="1.630816"
         rx="3.0000045"
         y="116.70537"
         x="89.331673"
         height="17.670374"
         width="24.379465"
         id="rect4552"
         style="opacity:1;fill:#cccccc;fill-opacity:1;stroke:none;stroke-width:4.42377234;stroke-linecap:round;stroke-linejoin:round;stroke-miterlimit:4;stroke-dasharray:none;stroke-opacity:1" />
      <rect
         ry="3"
         rx="3"
         y="61.742569"
         x="55.231544"
         height="57.862324"
         width="92.57972"
         id="rect4485"
         style="opacity:1;fill:#cccccc;fill-opacity:1;stroke:#5a5758;stroke-width:3;stroke-miterlimit:4;stroke-dasharray:none;stroke-opacity:1" />
      <rect
         style="opacity:1;fill:#cccccc;fill-opacity:1;stroke:#5a5758;stroke-width:3;stroke-miterlimit:4;stroke-dasharray:none;stroke-opacity:1"
         id="rect4489"
         width="70.865746"
         height="44.291088"
         x="66.088531"
         y="130.44069"
         rx="2.2963693"
         ry="2.2963693" />
      <circle
         r="10.690781"
         cy="88.316231"
         cx="83.00058"
         id="path4493"
         style="opacity:1;fill:#ffffff;fill-opacity:1;stroke:#5a5758;stroke-width:3;stroke-miterlimit:4;stroke-dasharray:none;stroke-opacity:1" />
      <circle
         style="opacity:1;fill:#ffffff;fill-opacity:1;stroke:#5a5758;stroke-width:3;stroke-miterlimit:4;stroke-dasharray:none;stroke-opacity:1"
         id="circle4495"
         cx="120.04224"
         cy="88.316231"
         r="10.690781" />
      <circle
         r="4.8108516"
         cy="88.316231"
         cx="83.00058"
         id="path4507"
         style="opacity:1;fill:#000000;fill-opacity:1;stroke:none;stroke-width:4.5;stroke-miterlimit:4;stroke-dasharray:none;stroke-opacity:1" />
      <circle
         style="opacity:1;fill:#000000;fill-opacity:1;stroke:none;stroke-width:4.5;stroke-miterlimit:4;stroke-dasharray:none;stroke-opacity:1"
         id="circle4509"
         cx="120.04224"
         cy="88.316231"
         r="4.8108516" />
      <path
         sodipodi:nodetypes="cc"
         inkscape:connector-curvature="0"
         id="path4512"
         d="m 90.903273,108.76787 c 6.381795,1.25917 15.084257,1.96111 21.733627,0"
         style="fill:none;fill-rule:evenodd;stroke:#5a5758;stroke-width:6;stroke-linecap:round;stroke-linejoin:round;stroke-miterlimit:4;stroke-dasharray:none;stroke-opacity:1" />
      <circle
         r="5.6750212"
         cy="44.714664"
         cx="134.25923"
         id="path4558"
         style="opacity:1;fill:#f47216;fill-opacity:1;stroke:none;stroke-width:7.35390711;stroke-linecap:round;stroke-linejoin:round;stroke-miterlimit:4;stroke-dasharray:none;stroke-opacity:1" />
      <path
         inkscape:connector-curvature="0"
         id="circle4564"
         d="m 44.087688,142.94269 a 9.6437711,9.6437711 0 0 0 -9.204605,6.77065 h 6.80837 c 1.662004,0 3.000332,1.28096 3.000332,2.87269 0,1.59172 -1.338328,2.87321 -3.000332,2.87321 h -6.798551 a 9.6437711,9.6437711 0 0 0 9.194786,6.77065 9.6437711,9.6437711 0 0 0 9.643856,-9.64386 9.6437711,9.6437711 0 0 0 -9.643856,-9.64334 z"
         style="opacity:1;fill:#f47216;fill-opacity:1;stroke:none;stroke-width:12.49676323;stroke-linecap:round;stroke-linejoin:round;stroke-miterlimit:4;stroke-dasharray:none;stroke-opacity:1" />
      <path
         inkscape:connector-curvature="0"
         style="opacity:1;fill:#f47216;fill-opacity:1;stroke:none;stroke-width:12.49676323;stroke-linecap:round;stroke-linejoin:round;stroke-miterlimit:4;stroke-dasharray:none;stroke-opacity:1"
         d="m 158.95512,142.94269 a 9.6437711,9.6437711 0 0 1 9.20462,6.77065 h -6.80838 c -1.662,0 -3.00033,1.28096 -3.00033,2.87269 0,1.59172 1.33833,2.87321 3.00033,2.87321 h 6.79856 a 9.6437711,9.6437711 0 0 1 -9.1948,6.77065 9.6437711,9.6437711 0 0 1 -9.64386,-9.64386 9.6437711,9.6437711 0 0 1 9.64386,-9.64334 z"
         id="path4571" />
      <g
         id="g4519"
         transform="matrix(0.2822222,0,0,0.2822222,80.777789,138.05355)">
        <path
           id="path13668"
           style="color:#000000;opacity:0.9;fill:#f47216;fill-opacity:1;fill-rule:evenodd"
           sodipodi:type="star"
           d="m 143.79127,35.889242 c 2.50401,13.459016 -19.71352,-0.24257 -24.27449,12.665282 -4.56098,12.907851 21.3325,16.206245 10.92865,25.104283 -10.40385,8.898038 -9.64669,-17.193694 -23.1057,-14.689691 C 93.880713,61.473119 103.97096,85.546729 91.063109,80.985751 78.155258,76.424773 101.12994,64.034627 92.231902,53.630779 83.333864,43.226931 67.53063,64.002146 65.026627,50.543131 62.522624,37.084115 84.740147,50.785701 89.301125,37.87785 93.862102,24.969998 67.968621,21.671604 78.372469,12.773566 88.776318,3.8755279 88.019157,29.96726 101.47817,27.463257 114.93719,24.959254 104.84694,0.88564417 117.75479,5.4466219 130.66264,10.0076 107.68796,22.397746 116.586,32.801594 c 8.89804,10.403848 24.70127,-10.371367 27.20527,3.087648 z"
           sodipodi:r1="40.058102"
           sodipodi:r2="16.023241"
           sodipodi:arg1="-0.18394346"
           sodipodi:arg2="0.33965532"
           transform="matrix(1.0479,0,0,1.0479,-61.934,-1.8273)"
           inkscape:randomized="0"
           sodipodi:cy="43.216187"
           sodipodi:cx="104.40895"
           inkscape:rounded="0.5"
           inkscape:flatsided="false"
           sodipodi:sides="6" />
        <path
           id="path13670"
           style="color:#000000;opacity:0.7;fill:#f47216;fill-opacity:1;fill-rule:evenodd"
           sodipodi:type="star"
           d="m 143.79127,35.889242 c 2.50401,13.459016 -19.71352,-0.24257 -24.27449,12.665282 -4.56098,12.907851 21.3325,16.206245 10.92865,25.104283 -10.40385,8.898038 -9.64669,-17.193694 -23.1057,-14.689691 C 93.880713,61.473119 103.97096,85.546729 91.063109,80.985751 78.155258,76.424773 101.12994,64.034627 92.231902,53.630779 83.333864,43.226931 67.53063,64.002146 65.026627,50.543131 62.522624,37.084115 84.740147,50.785701 89.301125,37.87785 93.862102,24.969998 67.968621,21.671604 78.372469,12.773566 88.776318,3.8755279 88.019157,29.96726 101.47817,27.463257 114.93719,24.959254 104.84694,0.88564417 117.75479,5.4466219 130.66264,10.0076 107.68796,22.397746 116.586,32.801594 c 8.89804,10.403848 24.70127,-10.371367 27.20527,3.087648 z"
           sodipodi:r1="40.058102"
           sodipodi:r2="16.023241"
           sodipodi:arg1="-0.18394346"
           sodipodi:arg2="0.33965532"
           transform="matrix(0.76137,0,0,0.78591,21.729,9.8958)"
           inkscape:randomized="0"
           sodipodi:cy="43.216187"
           sodipodi:cx="104.40895"
           inkscape:rounded="0.5"
           inkscape:flatsided="false"
           sodipodi:sides="6" />
        <path
           id="path13672"
           style="color:#000000;fill:#f47216;fill-opacity:1;fill-rule:evenodd"
           sodipodi:type="star"
           d="m 143.79127,35.889242 c 2.50401,13.459016 -19.71352,-0.24257 -24.27449,12.665282 -4.56098,12.907851 21.3325,16.206245 10.92865,25.104283 -10.40385,8.898038 -9.64669,-17.193694 -23.1057,-14.689691 C 93.880713,61.473119 103.97096,85.546729 91.063109,80.985751 78.155258,76.424773 101.12994,64.034627 92.231902,53.630779 83.333864,43.226931 67.53063,64.002146 65.026627,50.543131 62.522624,37.084115 84.740147,50.785701 89.301125,37.87785 93.862102,24.969998 67.968621,21.671604 78.372469,12.773566 88.776318,3.8755279 88.019157,29.96726 101.47817,27.463257 114.93719,24.959254 104.84694,0.88564417 117.75479,5.4466219 130.66264,10.0076 107.68796,22.397746 116.586,32.801594 c 8.89804,10.403848 24.70127,-10.371367 27.20527,3.087648 z"
           sodipodi:r1="40.058102"
           sodipodi:r2="16.023241"
           sodipodi:arg1="-0.18394346"
           sodipodi:arg2="0.33965532"
           transform="matrix(0.50758,0,0,0.52394,67.915,56.976)"
           inkscape:randomized="0"
           sodipodi:cy="43.216187"
           sodipodi:cx="104.40895"
           inkscape:rounded="0.5"
           inkscape:flatsided="false"
           sodipodi:sides="6" />
        <ellipse
           id="path13674"
           style="color:#000000;fill:#5a5758;fill-opacity:1;fill-rule:evenodd"
           transform="matrix(0.39286,0,0,0.50619,68.958,88.51)"
           cx="-53.349308"
           cy="-90.042595"
           rx="15.340788"
           ry="11.906283" />
        <ellipse
           id="path13676"
           style="color:#000000;fill:#5a5758;fill-opacity:1;fill-rule:evenodd"
           transform="matrix(0.26191,0,0,0.33746,115.2,74.245)"
           cx="-53.349308"
           cy="-90.042595"
           rx="15.340788"
           ry="11.906283" />
        <ellipse
           id="path13678"
           style="color:#000000;fill:#5a5758;fill-opacity:1;fill-rule:evenodd"
           transform="matrix(0.18333,0,0,0.23622,130.69,100.89)"
           cx="-53.349308"
           cy="-90.042595"
           rx="15.340788"
           ry="11.906283" />
      </g>
      <rect
         style="opacity:1;fill:#cccccc;fill-opacity:1;stroke:none;stroke-width:3.63480163;stroke-linecap:round;stroke-linejoin:round;stroke-miterlimit:4;stroke-dasharray:none;stroke-opacity:1"
         id="rect4597"
         width="56.929169"
         height="5.108706"
         x="73.295502"
         y="178.93355"
         rx="2"
         ry="2" />
    </g>
  </g>
</svg>
